<?xml version="1.0" encoding="UTF-8"?>
<svg xmlns="http://www.w3.org/2000/svg" viewBox="0 0 626 626">
  <defs>
    <linearGradient id="grad" gradientUnits="objectBoundingBox"
      x1="-0.05" y1="-0.08" x2="1.05" y2="1.08">
      <stop offset="0"    stop-color="#123a63"/>
      <stop offset="0.32" stop-color="#0f6f96"/>
      <stop offset="0.55" stop-color="#1fa39a"/>
      <stop offset="0.78" stop-color="#c98f2f"/>
      <stop offset="1"    stop-color="#e6b23a"/>
      <animate attributeName="x1" values="-0.05;0.11;-0.05" dur="7s" repeatCount="indefinite"/>
      <animate attributeName="x2" values="1.05;0.91;1.05"   dur="7s" repeatCount="indefinite"/>
    </linearGradient>
  </defs>
  <path fill="url(#grad)" fill-rule="evenodd" d="M211.32,572.88C211.24,572.79 201.86,572.56 190.5,572.36C179.13,572.16 165.93,571.85 161.17,571.67C122.93,570.19 122.39,570.17 103.67,568.99C73.65,567.11 54.77,564.58 51.63,562.04C50.95,561.49 50.91,561.34 51.32,560.85C53.09,558.72 64.86,556.67 84.83,555.02C87.22,554.82 90.55,554.51 92.23,554.33C93.92,554.15 96.17,554 97.23,554C99.71,553.99 100.67,553.73 100.67,553.04C100.66,552.75 100.13,550.4 99.47,547.83C97.2,538.93 96.46,535.67 94.54,526.17C94.06,523.78 93.51,521.08 93.33,520.17C93.14,519.25 92.84,517.52 92.65,516.33C92.46,515.14 92.08,512.74 91.8,511C90.14,500.74 88.97,490.62 88,478.17C87.08,466.42 87.28,437.51 88.34,427.83C88.52,426.18 88.82,423.26 89,421.33C90.27,408.21 93.52,389.88 96.47,379.17C96.72,378.25 97.41,375.7 98.01,373.5C104.63,348.88 116.13,322.35 130.45,298.67C138.85,284.79 150.19,269.67 160.45,258.68C165.51,253.26 175.07,243.97 179.46,240.22C185.74,234.85 195.1,227.36 198.47,225.02C198.85,224.75 200.22,223.76 201.5,222.82C204.43,220.66 209.61,217.09 215,213.53C224.57,207.2 229.21,204.16 229.83,203.81C231.65,202.81 247.4,192.37 250.67,190C251.67,189.27 252.92,188.41 253.43,188.09C255.77,186.61 263,180.96 267.37,177.18C281.97,164.59 291.89,149.65 296.87,132.73C298.37,127.65 299.14,124.02 300.32,116.5C301.1,111.58 301.73,99.96 301.59,93.42C301.51,89.7 301.55,86.67 301.69,86.67C301.83,86.67 302.37,87.23 302.89,87.92C308.71,95.56 316.12,110.98 320.15,123.83C320.67,125.48 321.35,127.66 321.67,128.67C323.14,133.27 326.33,148.13 326.33,150.33C326.33,150.9 326.48,152 326.65,152.77C326.82,153.54 327.06,154.75 327.17,155.46L327.38,156.75 L329.44,156.55C330.57,156.44 333.75,156.12 336.5,155.85C353.86,154.14 380.22,154.35 398.5,156.36C403.85,156.95 411.59,157.98 414.83,158.53C423.02,159.93 427,160.68 429.83,161.34C430.57,161.52 432.52,161.97 434.17,162.34C438.27,163.28 443.87,164.72 448.33,165.99C452.45,167.17 463.69,170.99 464.8,171.6L465.83,172.17 L464.7,172.27C464.07,172.33 461.67,172.15 459.36,171.87C450.64,170.81 437.71,170.23 427.67,170.46C416.69,170.71 401.56,171.8 397.17,172.66C396.25,172.84 394.38,173.13 393,173.31C387.68,174 378.78,175.63 373.83,176.81C367.07,178.43 363.04,179.42 362.17,179.68C361.62,179.85 360.42,180.2 359.5,180.46C339.92,186.07 322.49,193.23 303.92,203.28C302.87,203.85 301.02,204.92 299.81,205.66C298.59,206.4 297.51,207 297.41,207C297.14,207 290.2,211.33 286,214.11C270.7,224.26 257.92,234.76 245.32,247.55C241.37,251.55 237.02,256.15 235.65,257.76C229.28,265.25 225.45,270.01 223.67,272.64C223.21,273.31 222.37,274.46 221.8,275.18C219.38,278.28 213.84,286.78 209.7,293.76C207.89,296.83 201.97,308.39 200.03,312.67C197.67,317.87 194.73,325.48 192.68,331.67C191.53,335.13 191.01,336.83 189.49,342.17C188,347.37 185.91,357.53 184.99,364C183.1,377.31 182.55,394.26 183.68,404.5C183.86,406.15 184.16,408.93 184.35,410.67C184.97,416.46 185.92,422.37 187,427.17C187.37,428.82 187.81,430.84 187.98,431.67C188.36,433.52 188.92,435.63 190.45,441C195.88,460.1 205.45,480.65 216.98,497.95C218.37,500.03 219.88,502.35 220.36,503.11C221.26,504.58 222.21,504.97 222.11,503.83C221.37,495.76 221.24,490.41 221.6,483.89C221.82,479.98 222.14,475.97 222.31,474.98C223.47,468.35 223.82,466.56 224.4,464.33C226.62,455.74 229.55,448.24 232.08,444.67C234.92,440.67 238.48,436.86 241.34,434.76C245.68,431.57 246.67,430.54 246.67,429.2C246.67,427.94 245.28,425.99 242.51,423.33C240.69,421.59 236.75,416.52 234.55,413.07C231.13,407.75 228.57,401.52 227.51,396C226.9,392.85 226.95,385.16 227.6,382.17C228.04,380.12 229.39,376.17 230.15,374.7C230.46,374.1 230.64,373.41 230.55,373.17C230,371.74 224.48,372.77 221.69,374.81C216.63,378.53 214.1,386.67 215.33,395.33C215.69,397.89 216.27,400.43 217.69,405.67C219.38,411.91 220.04,416.1 219.92,419.74C219.8,423.18 219.3,424.5 218.7,422.93C218.53,422.47 218.2,420.85 217.98,419.33C217.76,417.82 217.06,415.13 216.43,413.37C215.79,411.61 215.14,409.7 214.97,409.13C214.8,408.56 214.39,407.85 214.05,407.54C213.45,407 213.42,407.14 213.23,411.74C212.91,419.01 211.34,423.51 207.84,427.17C205.61,429.5 205.3,429.29 206.21,426.05C206.69,424.35 206.83,422.77 206.81,419.33C206.78,413.51 206.04,410.07 202.8,400.51C196.98,383.35 196.52,381.36 196.76,373.88C196.94,368.22 197.29,366.5 199.24,361.83C201.34,356.8 205.73,351.45 210.17,348.51C216.98,343.99 225.39,343.2 232.33,346.42C234.43,347.39 237.82,349.89 239.25,351.52C240.12,352.51 240.97,353.33 241.14,353.33C241.31,353.33 243.71,352.22 246.47,350.85C252.67,347.79 254.37,347.16 260.39,345.66C275.63,341.86 293.1,344.73 303.75,352.77C312.71,359.52 318.2,369.67 319.37,381.58C320.26,390.72 318.12,400.86 314.02,406.98C313.71,407.45 312.99,408.51 312.44,409.33C311.3,411.01 302,427.21 302,427.51C302,427.61 301.72,428.1 301.38,428.6C301.04,429.09 299.73,431.07 298.48,433C296,436.8 290.9,442.35 288.98,443.34C288.33,443.67 286.84,444.2 285.68,444.5C283.94,444.95 283.27,444.98 281.87,444.66C279.55,444.14 274.89,442.55 270.64,440.84C265.75,438.86 265.29,438.78 264.13,439.78C263.22,440.56 263.19,440.7 263.21,443.55C263.23,445.24 263.47,447.27 263.78,448.3C264.49,450.65 266.65,454.55 268.96,457.67C274.24,464.8 277.68,470.75 279.45,475.83C280.68,479.37 281.26,480.67 281.61,480.67C281.87,480.67 283.55,479.35 292.83,471.83C294.48,470.5 297.56,468.03 299.67,466.35C303.85,463.01 305.36,461.79 311.75,456.61C314.09,454.72 316.64,452.67 317.42,452.06C318.2,451.46 319.66,450.29 320.67,449.47C323.98,446.75 325.04,446.04 325.44,446.21C325.82,446.38 326.83,447.52 332.5,454.17C333.97,455.89 335.81,458.02 336.6,458.9C337.4,459.78 339.9,462.7 342.18,465.39C344.45,468.08 346.47,470.38 346.66,470.49C347.29,470.89 346.99,469.84 346.08,468.45C344.64,466.28 342.2,462.69 340.54,460.33C339.71,459.14 339.02,457.93 339.01,457.65C339,457.36 339.54,456.61 340.2,455.98C341.2,455.02 344.46,451.36 347.67,447.58C349.05,445.97 349.44,446.31 350.46,450C350.74,451.01 351.28,452.96 351.66,454.33C352.05,455.71 352.52,457.43 352.72,458.17C352.92,458.9 353.28,460.18 353.52,461C353.76,461.82 354.5,464.53 355.17,467C355.84,469.47 356.51,471.88 356.67,472.33C356.82,472.79 357.49,475.19 358.17,477.67C358.84,480.14 359.68,483.14 360.03,484.33L360.68,486.5 L359.45,487.58C358.77,488.18 357.16,489.27 355.86,490C354.56,490.74 351.7,492.46 349.5,493.84C347.3,495.21 343.25,497.7 340.5,499.37C337.75,501.04 333.62,503.57 331.33,505C329.04,506.42 325.1,508.83 322.58,510.36C320.06,511.88 318,513.33 318,513.56C318,513.85 318.47,514 319.42,514C321.5,514.01 328.28,514.95 329,515.33C329.34,515.52 329.87,515.67 330.18,515.67C330.48,515.67 331.98,516.28 333.5,517.02C336.97,518.71 340.08,521.71 341.71,524.92C342.69,526.84 342.85,527.52 342.95,530.1C343.12,534.33 342.21,537.03 339.39,540.67C337.39,543.23 333.72,546.42 331.08,547.87C330,548.46 329.36,549.03 329.41,549.33C329.49,549.76 331.11,549.86 340.5,550.05C362.52,550.48 381.66,550.99 388.67,551.33C392.61,551.52 399.51,551.83 404,552.01C422.3,552.75 449.68,554.46 457.17,555.33C458.82,555.52 461.59,555.82 463.33,555.99C472.5,556.88 481.19,558.38 484.5,559.63C486.47,560.37 486.93,561.54 485.6,562.39C481.99,564.72 462.58,567.19 433.83,568.99C430.9,569.17 426.03,569.48 423,569.67C409.9,570.51 375.29,571.83 351.17,572.39C336.08,572.75 211.63,573.18 211.32,572.88zM439.75,298.17C439.15,297.91 436.96,295.98 434.88,293.88C431.31,290.26 430.99,289.83 429.09,285.95C426.21,280.05 425.83,278.38 425.83,271.5C425.83,267.66 425.98,265.35 426.29,264.33C428.66,256.55 431.03,252.67 436.56,247.6C437.69,246.56 439.23,245.39 439.98,245.01C441.53,244.22 441.7,244.27 444.5,246.34C452.27,252.1 457,261.68 457,271.67C457,281.66 452.38,290.93 444.43,296.87C441.88,298.79 441.44,298.91 439.75,298.17zM509.51,273.94C508.78,273.56 506.61,271.65 504.67,269.7C501.38,266.38 501.03,265.9 499.12,262C496.21,256.05 495.83,254.39 495.83,247.5C495.83,241.62 495.94,240.96 497.7,236.07C499.65,230.64 504.36,224.65 509.18,221.45C511.35,220.01 511.42,220.03 515.19,222.86C522.33,228.24 527,238 527,247.57C527,257.77 521.92,267.72 513.86,273.3C512.78,274.05 511.65,274.66 511.36,274.65C511.07,274.64 510.24,274.32 509.51,273.94zM468.81,260.81C466.5,259.67 461.13,255.08 458.9,252.33C454.9,247.41 453.36,244.85 451.48,239.99C447.14,228.77 447.59,215.74 452.7,205.05C455.71,198.75 461.28,192.14 466.72,188.42C469.46,186.54 470.33,186.34 471.71,187.25C477.64,191.17 482.78,196.51 485.76,201.83C490.55,210.37 492.25,218.35 491.41,228.28C491.2,230.78 490.88,233.28 490.7,233.83C490.51,234.38 490.04,235.88 489.65,237.17C487.9,242.9 483.85,249.78 479.7,254.12C477.62,256.28 473.51,259.55 471.49,260.63C469.94,261.46 470.1,261.45 468.81,260.81zM405.7,256.92C404.22,253.63 403.91,252.16 403.75,247.77C403.61,243.9 403.68,243.08 404.33,240.95C406.65,233.3 411.77,227.82 418.83,225.42C421.17,224.63 425.48,223.86 426.15,224.12C426.41,224.21 426.94,225.01 427.32,225.89C431.89,236.21 428.44,248.55 419.33,254.47C415.62,256.88 411.46,258.33 408.27,258.33L406.34,258.33 L405.7,256.92zM551.15,245.31C543.37,244.4 536.21,239.18 532.63,231.83C531.74,230 531.01,228.19 531,227.81C530.99,226.06 537.86,221.8 542.2,220.87C548.24,219.57 553.98,220.24 559.6,222.9C562.17,224.11 565.96,227.25 567.82,229.7C569.47,231.88 572.01,236.89 571.99,237.92C571.97,238.76 571.32,239.5 569.45,240.78C565.6,243.43 561.84,244.9 557.83,245.33C554.5,245.69 554.45,245.69 551.15,245.31zM396.33,223.31C388.51,222.31 379.9,218.29 373.69,212.74L371.87,211.11 L372.48,209.14C373.43,206.1 375.7,201.43 377.83,198.16C380.13,194.63 385.78,188.87 389.17,186.6C404.44,176.37 423.65,176.43 438.83,186.77C441.52,188.6 444.33,191.31 444.33,192.06C444.33,194.03 441.52,200.32 438.83,204.37C432.72,213.54 424.97,219.03 413.33,222.44C409.52,223.56 401.51,223.96 396.33,223.31zM522.83,213.63C520.35,213.19 516.69,212.32 515,211.76C513.63,211.3 512.71,210.93 509.33,209.44C504.45,207.28 496.38,200.23 493.11,195.27C491.29,192.51 488.39,186.8 487.98,185.17C487.84,184.62 487.52,183.66 487.28,183.05L486.83,181.92 L488.67,180.28C501.9,168.43 521.61,165.9 537.64,173.99C543.77,177.08 549.71,182.41 553.92,188.6C556.15,191.88 559.33,199.08 559.33,200.86C559.33,201.92 557.59,203.64 554.17,205.97C547.74,210.33 542.44,212.47 535.39,213.52C531.94,214.04 525.48,214.1 522.83,213.63zM550,168.46C546.05,167.8 541.7,166.07 538.49,163.89C536.71,162.68 533.12,159.13 531.59,157.06C530.26,155.26 527.91,150.55 527.54,148.94C527.03,146.71 532.73,142.8 539.67,140.62C541.85,139.94 542.83,139.84 547.33,139.85C551.61,139.85 552.9,139.97 554.83,140.55C559.71,142.02 563.27,144.05 566.87,147.41C570.88,151.17 575.22,158.83 574.46,160.81C574.2,161.49 571.05,163.89 568.67,165.22C565.96,166.73 562.56,167.9 559.17,168.48C555.59,169.1 553.78,169.09 550,168.46zM456.5,162.33C446.81,160.38 439.42,156.44 432.95,149.79C427.17,143.84 423.22,136.09 421.49,127.33C420.76,123.63 420.77,115.75 421.52,111.8C422.17,108.29 423.84,103.26 425.34,100.25L426.46,98 L428.48,98C432.68,98 439.07,99.48 443.8,101.55C451.02,104.7 456.64,109.03 460.81,114.67C465.71,121.3 468.1,126.86 469.47,134.92C470.51,140.96 469.89,148.5 467.82,155C466.88,157.97 464.85,162.33 464.21,162.74C463.56,163.17 459.62,162.96 456.5,162.33zM482.71,161.75C480.94,158.24 479.33,153.63 478.45,149.5C477.64,145.68 477.65,136.79 478.46,133.17C479.63,127.98 481.73,122.34 483.46,119.67C483.88,119.02 484.81,117.6 485.53,116.5C486.25,115.4 488.3,112.98 490.1,111.12C496.54,104.45 504.29,100.35 513.67,98.64C518.19,97.82 520.72,97.8 521.43,98.58C522.72,100.02 525.39,107.33 526.02,111.17C526.75,115.68 527,117.79 527,119.56C526.99,121.57 526.14,128.79 525.8,129.67C525.7,129.94 525.26,131.38 524.82,132.86C523.14,138.61 518.74,145.86 514.13,150.47C509.8,154.8 503.47,158.67 497.21,160.81C493.78,161.99 488.41,163 485.59,163L483.35,163 L482.71,161.75zM383.07,147.92C382.37,147.06 381.09,143.74 380.36,140.86C379.68,138.21 379.62,137.31 379.75,132.69C379.89,128.15 380.02,127.16 380.82,124.83C382.05,121.22 382.52,120.22 384.3,117.5C388.81,110.6 396.07,105.9 404.41,104.48C409.25,103.65 409.32,103.68 410.77,107.41C412.38,111.52 413,114.76 413,119.06C413,126.97 410.14,133.86 404.54,139.48C400.04,143.99 396.61,145.99 390.51,147.69C387.84,148.43 383.6,148.56 383.07,147.92zM538.23,129.97C537.53,129.55 536.62,127.61 535.44,124C534.41,120.88 534.05,114.78 534.64,110.71C535.42,105.36 538.33,99.4 542.33,94.91C544.54,92.44 549.99,88.92 553.67,87.59C557.19,86.31 562.18,85.5 563.47,85.99C564.93,86.55 566.72,91.32 567.51,96.76C568,100.17 568,100.83 567.53,104.2C566.02,115.07 559.71,123.57 550.02,127.82C546.07,129.55 539.52,130.74 538.23,129.97zM468.38,103.22C467.69,102.4 466.36,99.04 465.61,96.27C464.61,92.54 464.54,85.69 465.46,82C466.22,78.99 468.42,74.14 470.26,71.46C472.83,67.72 477.26,63.99 481.41,62.06C484.99,60.41 492.43,58.67 493.92,59.14C494.92,59.46 496.3,62.65 497.55,67.5C498.36,70.67 498.35,77.98 497.52,80.83C496.04,85.95 494.62,88.86 491.95,92.26C489.86,94.93 488.88,95.9 486.58,97.63C482.58,100.63 477.75,102.63 472.89,103.3C469.52,103.77 468.83,103.76 468.38,103.22zM389.67,99.99C383.05,99.34 377.58,96.64 372.56,91.54C369.65,88.58 367.58,85.31 366.33,81.69L365.5,79.26 L367.06,77.85C370.31,74.9 374.71,72.77 379.81,71.65C393.63,68.63 407.96,76.73 412.51,90.14C413.11,91.92 413.03,92.12 410.91,93.94C407.85,96.57 402.95,98.84 398.17,99.82C395.57,100.36 393.81,100.39 389.67,99.99zM430.33,81.51C423.32,79.97 416.59,75.62 413.02,70.33C410.55,66.68 408.58,62.25 408.89,61.07C408.98,60.7 409.91,59.73 410.95,58.93C416.29,54.79 421.91,52.88 428.71,52.89C432.55,52.89 433.82,53.1 438,54.42C443.27,56.09 448.66,60.05 451.77,64.54C453.58,67.17 456,72.32 456,73.56C456,74.76 449.96,78.83 446,80.3C441.58,81.94 434.71,82.47 430.33,81.51z"/>
</svg>
